<?xml version="1.0" standalone="no"?><!DOCTYPE svg PUBLIC "-//W3C//DTD SVG 1.1//EN" "http://www.w3.org/Graphics/SVG/1.1/DTD/svg11.dtd"><svg t="1758258316902" class="icon" viewBox="0 0 1024 1024" version="1.1" xmlns="http://www.w3.org/2000/svg" p-id="3558" xmlns:xlink="http://www.w3.org/1999/xlink" width="200" height="200" fill="#6400DC"><path d="M933.3 169.9c-15.7-22.1-39-36.8-65.8-41.4-5.7-1-11.5-1.4-17.2-1.4-20.9 0-41.3 6.4-58.6 18.7l-36.5 25.9c-35.2 25-77.2 38-119.5 38-21.9 0-43.9-3.5-65-10.6l-68.3-22.8c-37.5-12.5-76.7-18.7-115.8-18.7-58.8 0-117.4 14-170.1 41.4l-56.9 29.7c-54 28.2-87.6 83.6-87.6 144.6v422.1c0 19.9 5.8 39.2 16.7 55.8 14.9 22.7 37.8 38.2 64.3 43.6 6.9 1.4 13.8 2.1 20.7 2.1 19.6 0 38.9-5.7 55.7-16.8l27.7-18.2c44.8-29.5 96.3-44.7 148.4-44.7 27.2 0 54.6 4.2 81.3 12.6l91.2 28.7c28 8.8 56.9 13.2 85.8 13.2 38.2 0 76.2-7.6 111.8-22.8l34.3-14.5C896.2 797.6 952 713.3 952 619.5V228.6c0-21.1-6.5-41.4-18.7-58.7zM576 669.1c-5.4 2.7-11.2 3.9-16.8 3.9-14 0-27.5-7.8-34.1-21.2l-82.7-167.2-82.7 167.2c-9.3 18.8-32.1 26.5-50.9 17.2-18.8-9.3-26.5-32.1-17.2-50.9l116.8-236c6.4-13 19.6-21.2 34.1-21.2s27.7 8.2 34.1 21.2l116.8 236c9.1 18.9 1.4 41.7-17.4 51zM670.6 361c21 0 38 17 38 38s-17 38-38 38-38-17-38-38 17-38 38-38z m38.8 274c0 21-17 38-38 38s-38-17-38-38V503.2c0-21 17-38 38-38s38 17 38 38V635z" p-id="3559"></path></svg>